<?xml version="1.0" encoding="UTF-8"?>
<svg width="150px" height="155.833334px" viewBox="0 0 150 155.833334" version="1.1" xmlns="http://www.w3.org/2000/svg" xmlns:xlink="http://www.w3.org/1999/xlink">
    <title>fa_logo_purple_orange</title>
    <g id="blog-design" stroke="none" stroke-width="1" fill="none" fill-rule="evenodd">
        <g id="fa_logo_purple_orange" fill-rule="nonzero">
            <path d="M42.1484996,137.754645 C36.6833384,134.611754 31.6963642,130.701607 27.3395674,126.143375 C26.0759932,127.729248 24.5313734,129.068742 22.7829728,130.094854 C21.8172658,130.640438 20.7996702,131.088456 19.7452431,131.432278 C43.3171444,157.188724 81.5149041,163.302868 111.940339,146.189533 C113.379034,145.362954 114.266164,143.829671 114.266164,142.169663 C114.266164,140.509655 113.379034,138.976373 111.940339,138.149793 L111.940339,138.149793 C110.544128,137.311693 108.807093,137.282725 107.383745,138.073803 C87.1145342,149.52678 62.3048167,149.4054 42.1484996,137.754645 Z" id="Path" fill="#1E293B"></path>
            <path d="M42.1333109,23.8304593 C47.6002209,20.6754696 53.4933347,18.3259868 59.630634,16.8545787 C58.8680273,14.9186117 58.4764302,12.856306 58.4762968,10.7753799 C58.4791507,9.65265934 58.5910603,8.53287451 58.810447,7.43182055 C24.7434873,15.0010379 0.377235926,45.0557124 0,79.9718603 C0.0054328111,81.6306291 0.893430551,83.1609286 2.33044934,83.9879584 C3.76746813,84.8149876 5.53593485,84.8135292 6.97158966,83.9841317 L6.97158966,83.9841317 C8.38121576,83.191649 9.26556467,81.7110434 9.29545292,80.0934443 C9.54382301,56.8525338 22.0258546,35.4663534 42.1333109,23.8304593 Z" id="Path" fill="#1E293B"></path>
            <path d="M140.722828,80.7925521 C140.720717,87.1061509 139.810183,93.3865584 138.019249,99.4404942 C140.061684,99.7400409 142.029782,100.420535 143.821313,101.44663 C144.782663,101.997028 145.692586,102.63284 146.540081,103.34638 C156.995816,70.0401536 143.153599,33.9149136 113.125054,16.1402728 C111.686863,15.3863647 109.959746,15.4380661 108.569168,16.2766538 C107.178588,17.1152416 106.326143,18.6191435 106.320048,20.243732 L106.320048,20.243732 C106.303683,21.8581638 107.14136,23.3611308 108.522893,24.1952113 C128.489516,36.0495444 140.728313,57.561493 140.722828,80.7925521 Z" id="Path" fill="#1E293B"></path>
            <path d="M75.016735,49.5150669 C87.6608926,49.5089266 99.0634417,57.1255405 103.906409,68.812645 C108.749377,80.4997495 106.078804,93.9552426 97.1402067,102.90369 C88.2016092,111.852138 74.7556924,114.530893 63.0734244,109.690625 C51.3911563,104.850358 43.773685,93.4444934 43.773685,80.7925521 C43.7904149,63.5313488 57.7661594,49.5402039 75.016735,49.5150669 M75.016735,40.2290924 C52.627938,40.2290924 34.4782321,58.3899751 34.4782321,80.7925521 C34.4782321,103.195129 52.627938,121.356006 75.016735,121.356006 C97.4055317,121.356006 115.555244,103.195129 115.555244,80.7925521 C115.559269,70.0332193 111.289555,59.7134023 103.686237,52.1054045 C96.0829184,44.4974067 85.7694501,40.2250646 75.016735,40.2290924 Z" id="Shape" fill="#1E293B"></path>
            <ellipse id="Oval" fill="#F58320" cx="75.0015463" cy="10.8209738" rx="10.8143178" ry="10.8209738"></ellipse>
            <ellipse id="Oval" fill="#F58320" cx="14.4444048" cy="115.763143" rx="10.8143178" ry="10.8209738"></ellipse>
            <ellipse id="Oval" fill="#F58320" cx="135.558688" cy="115.763143" rx="10.8143178" ry="10.8209738"></ellipse>
            <path d="M83.9781454,73.3911276 C83.9840176,69.0270315 80.8491326,65.2923903 76.5522173,64.5446237 C72.255302,63.7968572 68.0443705,66.2531497 66.5774916,70.3630144 C65.1106126,74.4728791 66.8138325,79.0426297 70.6120269,81.1877001 L67.7869383,95.5194109 C67.6945358,95.9718851 67.8127575,96.4418517 68.108228,96.7966351 C68.4036984,97.1514176 68.8443582,97.3525209 69.3058031,97.3437755 L80.8036101,97.3437755 C81.2650551,97.3525209 81.7057148,97.1514176 82.0011852,96.7966351 C82.2966557,96.4418517 82.4148775,95.9718851 82.3224749,95.5194109 L79.4821976,81.1877001 C82.2726337,79.5865952 83.9892109,76.6097505 83.9781454,73.3911276 L83.9781454,73.3911276 Z" id="Path" fill="#F58320"></path>
        </g>
    </g>
</svg>