<?xml version="1.0" encoding="UTF-8"?>
<svg width="70px" height="70px" viewBox="0 0 70 70" version="1.1" xmlns="http://www.w3.org/2000/svg" xmlns:xlink="http://www.w3.org/1999/xlink">
    <title>2 copy 2</title>
    <defs>
        <rect id="path-1" x="0" y="0" width="70" height="70"></rect>
        <linearGradient x1="14.8283039%" y1="0%" x2="85.1716961%" y2="100%" id="linearGradient-3">
            <stop stop-color="#A4AEBE" offset="0%"></stop>
            <stop stop-color="#2D53F5" offset="100%"></stop>
        </linearGradient>
    </defs>
    <g id="Expert-Advice" stroke="none" stroke-width="1" fill="none" fill-rule="evenodd">
        <g id="2-copy-2">
            <mask id="mask-2" fill="white">
                <use xlink:href="#path-1"></use>
            </mask>
            <g id="Mask"></g>
            <path d="M59.7124801,11.3725508 L35.519441,4.07665234 C35.1810575,3.97444922 34.8197857,3.97444922 34.4810408,4.07665234 L10.2877609,11.3725508 C9.52341636,11.6029922 9,12.3101797 9,13.1123047 L9,39.8638516 C9,43.3433594 10.401238,46.9052109 13.1648041,50.4504727 C15.2755754,53.1581289 18.1956244,55.8770469 21.843999,58.5317852 C27.9728492,62.9914258 34.007858,65.7271758 34.2617962,65.8413672 C34.4967011,65.947082 34.7483506,66 35.0001205,66 C35.2517699,66 35.5035398,65.9472031 35.7384447,65.8413672 C35.992383,65.7271758 42.0272712,62.9914258 48.1561214,58.5317852 C51.8043756,55.8770469 54.7244245,53.1581289 56.8351959,50.4504727 C59.598762,46.905332 61,43.3434805 61,39.8638516 L61,13.1123047 C61,12.3101797 60.4768245,11.6029922 59.7124801,11.3725508 Z M57.3861985,39.8638516 C57.3861985,46.0217109 51.2397605,51.7957031 46.0835372,55.5553008 C41.4608492,58.9257031 36.7727492,61.3173047 35.0002409,62.1764648 C33.2277327,61.3173047 28.5395122,58.9257031 23.9168242,55.5553008 C18.7604804,51.7957031 12.6139219,46.0217109 12.6139219,39.8638516 L12.6139219,14.4637109 L35.0001205,7.71273438 L57.3861985,14.4637109 L57.3861985,39.8638516 Z" id="Shape" fill="url(#linearGradient-3)" fill-rule="nonzero" mask="url(#mask-2)"></path>
        </g>
    </g>
</svg>